<mxfile host="app.diagrams.net" agent="Mozilla/5.0 (Windows NT 10.0; Win64; x64) AppleWebKit/537.36 (KHTML, like Gecko) Chrome/126.0.0.0 YaBrowser/24.7.0.0 Safari/537.36" version="24.7.17">
  <diagram id="C5RBs43oDa-KdzZeNtuy" name="Page-1">
    <mxGraphModel dx="2369" dy="2054" grid="1" gridSize="10" guides="1" tooltips="1" connect="1" arrows="1" fold="1" page="1" pageScale="1" pageWidth="827" pageHeight="1169" math="0" shadow="0">
      <root>
        <mxCell id="WIyWlLk6GJQsqaUBKTNV-0" />
        <mxCell id="WIyWlLk6GJQsqaUBKTNV-1" parent="WIyWlLk6GJQsqaUBKTNV-0" />
        <mxCell id="WIyWlLk6GJQsqaUBKTNV-2" value="" style="rounded=0;html=1;jettySize=auto;orthogonalLoop=1;fontSize=11;endArrow=block;endFill=0;endSize=8;strokeWidth=1;shadow=0;labelBackgroundColor=none;edgeStyle=orthogonalEdgeStyle;entryX=0.5;entryY=0;entryDx=0;entryDy=0;" parent="WIyWlLk6GJQsqaUBKTNV-1" source="WIyWlLk6GJQsqaUBKTNV-3" target="WIyWlLk6GJQsqaUBKTNV-7" edge="1">
          <mxGeometry relative="1" as="geometry">
            <mxPoint x="210" y="-168" as="targetPoint" />
          </mxGeometry>
        </mxCell>
        <mxCell id="Hfo26zdI6mmSCi7H8B1I-1" style="edgeStyle=orthogonalEdgeStyle;rounded=0;orthogonalLoop=1;jettySize=auto;html=1;entryX=0.5;entryY=1;entryDx=0;entryDy=0;endArrow=none;endFill=0;" edge="1" parent="WIyWlLk6GJQsqaUBKTNV-1" source="WIyWlLk6GJQsqaUBKTNV-3" target="Hfo26zdI6mmSCi7H8B1I-0">
          <mxGeometry relative="1" as="geometry" />
        </mxCell>
        <mxCell id="WIyWlLk6GJQsqaUBKTNV-3" value="Зайти в магазин" style="rounded=1;whiteSpace=wrap;html=1;fontSize=12;glass=0;strokeWidth=1;shadow=0;" parent="WIyWlLk6GJQsqaUBKTNV-1" vertex="1">
          <mxGeometry x="150" y="-258" width="120" height="30" as="geometry" />
        </mxCell>
        <mxCell id="Hfo26zdI6mmSCi7H8B1I-3" style="edgeStyle=orthogonalEdgeStyle;rounded=0;orthogonalLoop=1;jettySize=auto;html=1;endArrow=block;endFill=0;entryX=0.5;entryY=0;entryDx=0;entryDy=0;strokeWidth=1;endSize=8;" edge="1" parent="WIyWlLk6GJQsqaUBKTNV-1" source="WIyWlLk6GJQsqaUBKTNV-7" target="Hfo26zdI6mmSCi7H8B1I-4">
          <mxGeometry relative="1" as="geometry">
            <mxPoint x="210" y="-118" as="targetPoint" />
          </mxGeometry>
        </mxCell>
        <mxCell id="WIyWlLk6GJQsqaUBKTNV-7" value="Взять корзину" style="rounded=1;whiteSpace=wrap;html=1;fontSize=12;glass=0;strokeWidth=1;shadow=0;" parent="WIyWlLk6GJQsqaUBKTNV-1" vertex="1">
          <mxGeometry x="150" y="-188" width="120" height="30" as="geometry" />
        </mxCell>
        <mxCell id="Hfo26zdI6mmSCi7H8B1I-0" value="" style="ellipse;whiteSpace=wrap;html=1;fillColor=#000000;" vertex="1" parent="WIyWlLk6GJQsqaUBKTNV-1">
          <mxGeometry x="200" y="-318" width="20" height="20" as="geometry" />
        </mxCell>
        <mxCell id="Hfo26zdI6mmSCi7H8B1I-2" value="Список:&lt;div&gt;Колбаса (Докторская &quot;Папа может&quot; или &quot;Губернская&quot;),&lt;/div&gt;&lt;div&gt;Масло сливочное,&lt;/div&gt;&lt;div&gt;Хлеб белый нарезной&lt;/div&gt;" style="text;html=1;align=center;verticalAlign=middle;resizable=0;points=[];autosize=1;strokeColor=none;fillColor=none;" vertex="1" parent="WIyWlLk6GJQsqaUBKTNV-1">
          <mxGeometry x="305" y="-350" width="330" height="70" as="geometry" />
        </mxCell>
        <mxCell id="Hfo26zdI6mmSCi7H8B1I-6" style="edgeStyle=orthogonalEdgeStyle;rounded=0;orthogonalLoop=1;jettySize=auto;html=1;entryX=0.5;entryY=0;entryDx=0;entryDy=0;endSize=8;endArrow=block;endFill=0;" edge="1" parent="WIyWlLk6GJQsqaUBKTNV-1" source="Hfo26zdI6mmSCi7H8B1I-4" target="Hfo26zdI6mmSCi7H8B1I-5">
          <mxGeometry relative="1" as="geometry" />
        </mxCell>
        <mxCell id="Hfo26zdI6mmSCi7H8B1I-4" value="Прийти в мясной отдел" style="rounded=1;whiteSpace=wrap;html=1;fontSize=12;glass=0;strokeWidth=1;shadow=0;" vertex="1" parent="WIyWlLk6GJQsqaUBKTNV-1">
          <mxGeometry x="150" y="-118" width="120" height="30" as="geometry" />
        </mxCell>
        <mxCell id="Hfo26zdI6mmSCi7H8B1I-9" style="edgeStyle=orthogonalEdgeStyle;rounded=0;orthogonalLoop=1;jettySize=auto;html=1;entryX=0.5;entryY=0;entryDx=0;entryDy=0;endArrow=block;endFill=0;jumpSize=8;" edge="1" parent="WIyWlLk6GJQsqaUBKTNV-1" source="Hfo26zdI6mmSCi7H8B1I-5" target="Hfo26zdI6mmSCi7H8B1I-7">
          <mxGeometry relative="1" as="geometry" />
        </mxCell>
        <mxCell id="Hfo26zdI6mmSCi7H8B1I-10" style="edgeStyle=orthogonalEdgeStyle;rounded=0;orthogonalLoop=1;jettySize=auto;html=1;entryX=0.5;entryY=0;entryDx=0;entryDy=0;endSize=8;endArrow=block;endFill=0;" edge="1" parent="WIyWlLk6GJQsqaUBKTNV-1" source="Hfo26zdI6mmSCi7H8B1I-5" target="Hfo26zdI6mmSCi7H8B1I-8">
          <mxGeometry relative="1" as="geometry" />
        </mxCell>
        <mxCell id="Hfo26zdI6mmSCi7H8B1I-5" value="" style="rounded=0;whiteSpace=wrap;html=1;strokeColor=#000000;fillColor=#000000;" vertex="1" parent="WIyWlLk6GJQsqaUBKTNV-1">
          <mxGeometry x="142.5" y="-58" width="135" height="30" as="geometry" />
        </mxCell>
        <mxCell id="Hfo26zdI6mmSCi7H8B1I-12" style="edgeStyle=orthogonalEdgeStyle;rounded=0;orthogonalLoop=1;jettySize=auto;html=1;endSize=8;endArrow=block;endFill=0;entryX=0.5;entryY=0;entryDx=0;entryDy=0;" edge="1" parent="WIyWlLk6GJQsqaUBKTNV-1" source="Hfo26zdI6mmSCi7H8B1I-7" target="Hfo26zdI6mmSCi7H8B1I-14">
          <mxGeometry relative="1" as="geometry">
            <mxPoint x="210" y="122" as="targetPoint" />
            <Array as="points">
              <mxPoint x="130" y="62" />
              <mxPoint x="210" y="62" />
            </Array>
          </mxGeometry>
        </mxCell>
        <mxCell id="Hfo26zdI6mmSCi7H8B1I-7" value="Искать &quot;Папа может&quot;" style="rounded=1;whiteSpace=wrap;html=1;" vertex="1" parent="WIyWlLk6GJQsqaUBKTNV-1">
          <mxGeometry x="80" y="12" width="100" height="30" as="geometry" />
        </mxCell>
        <mxCell id="Hfo26zdI6mmSCi7H8B1I-13" style="edgeStyle=orthogonalEdgeStyle;rounded=0;orthogonalLoop=1;jettySize=auto;html=1;startSize=8;endArrow=block;endFill=0;endSize=8;entryX=0.5;entryY=0;entryDx=0;entryDy=0;" edge="1" parent="WIyWlLk6GJQsqaUBKTNV-1" source="Hfo26zdI6mmSCi7H8B1I-8" target="Hfo26zdI6mmSCi7H8B1I-14">
          <mxGeometry relative="1" as="geometry">
            <mxPoint x="210" y="112" as="targetPoint" />
            <Array as="points">
              <mxPoint x="290" y="62" />
              <mxPoint x="210" y="62" />
            </Array>
          </mxGeometry>
        </mxCell>
        <mxCell id="Hfo26zdI6mmSCi7H8B1I-8" value="Искать &quot;Губернскую&quot;" style="rounded=1;whiteSpace=wrap;html=1;" vertex="1" parent="WIyWlLk6GJQsqaUBKTNV-1">
          <mxGeometry x="240" y="12" width="100" height="30" as="geometry" />
        </mxCell>
        <mxCell id="Hfo26zdI6mmSCi7H8B1I-15" style="edgeStyle=orthogonalEdgeStyle;rounded=0;orthogonalLoop=1;jettySize=auto;html=1;endSize=8;endArrow=block;endFill=0;entryX=0.5;entryY=0;entryDx=0;entryDy=0;" edge="1" parent="WIyWlLk6GJQsqaUBKTNV-1" source="Hfo26zdI6mmSCi7H8B1I-14" target="Hfo26zdI6mmSCi7H8B1I-16">
          <mxGeometry relative="1" as="geometry">
            <mxPoint x="210" y="142" as="targetPoint" />
          </mxGeometry>
        </mxCell>
        <mxCell id="Hfo26zdI6mmSCi7H8B1I-14" value="" style="rounded=0;whiteSpace=wrap;html=1;fillColor=#000000;" vertex="1" parent="WIyWlLk6GJQsqaUBKTNV-1">
          <mxGeometry x="141.25" y="82" width="137.5" height="30" as="geometry" />
        </mxCell>
        <mxCell id="Hfo26zdI6mmSCi7H8B1I-20" style="edgeStyle=orthogonalEdgeStyle;rounded=0;orthogonalLoop=1;jettySize=auto;html=1;exitX=0;exitY=0.5;exitDx=0;exitDy=0;entryX=0.5;entryY=0;entryDx=0;entryDy=0;endSize=8;endArrow=block;endFill=0;" edge="1" parent="WIyWlLk6GJQsqaUBKTNV-1" source="Hfo26zdI6mmSCi7H8B1I-16" target="Hfo26zdI6mmSCi7H8B1I-18">
          <mxGeometry relative="1" as="geometry" />
        </mxCell>
        <mxCell id="Hfo26zdI6mmSCi7H8B1I-21" style="edgeStyle=orthogonalEdgeStyle;rounded=0;orthogonalLoop=1;jettySize=auto;html=1;entryX=0.5;entryY=0;entryDx=0;entryDy=0;endSize=8;endArrow=block;endFill=0;" edge="1" parent="WIyWlLk6GJQsqaUBKTNV-1" source="Hfo26zdI6mmSCi7H8B1I-16" target="Hfo26zdI6mmSCi7H8B1I-19">
          <mxGeometry relative="1" as="geometry">
            <Array as="points">
              <mxPoint x="321" y="172" />
            </Array>
          </mxGeometry>
        </mxCell>
        <mxCell id="Hfo26zdI6mmSCi7H8B1I-16" value="Первым&lt;div&gt;нашёл &quot;Папа может&quot;?&lt;/div&gt;" style="rhombus;whiteSpace=wrap;html=1;" vertex="1" parent="WIyWlLk6GJQsqaUBKTNV-1">
          <mxGeometry x="150" y="132" width="120" height="70" as="geometry" />
        </mxCell>
        <mxCell id="Hfo26zdI6mmSCi7H8B1I-23" style="edgeStyle=orthogonalEdgeStyle;rounded=0;orthogonalLoop=1;jettySize=auto;html=1;endSize=8;endArrow=block;endFill=0;entryX=0.502;entryY=-0.037;entryDx=0;entryDy=0;entryPerimeter=0;" edge="1" parent="WIyWlLk6GJQsqaUBKTNV-1" source="Hfo26zdI6mmSCi7H8B1I-18" target="Hfo26zdI6mmSCi7H8B1I-25">
          <mxGeometry relative="1" as="geometry">
            <mxPoint x="210" y="302" as="targetPoint" />
            <Array as="points">
              <mxPoint x="91" y="232" />
              <mxPoint x="210" y="232" />
            </Array>
          </mxGeometry>
        </mxCell>
        <mxCell id="Hfo26zdI6mmSCi7H8B1I-18" value="Положить в корзину &quot;Папа может&quot;" style="rounded=1;whiteSpace=wrap;html=1;" vertex="1" parent="WIyWlLk6GJQsqaUBKTNV-1">
          <mxGeometry x="30" y="194" width="130" height="30" as="geometry" />
        </mxCell>
        <mxCell id="Hfo26zdI6mmSCi7H8B1I-24" style="edgeStyle=orthogonalEdgeStyle;rounded=0;orthogonalLoop=1;jettySize=auto;html=1;endSize=8;endArrow=block;endFill=0;entryX=0.502;entryY=-0.035;entryDx=0;entryDy=0;entryPerimeter=0;" edge="1" parent="WIyWlLk6GJQsqaUBKTNV-1" source="Hfo26zdI6mmSCi7H8B1I-19" target="Hfo26zdI6mmSCi7H8B1I-25">
          <mxGeometry relative="1" as="geometry">
            <mxPoint x="210" y="302" as="targetPoint" />
            <Array as="points">
              <mxPoint x="329" y="232" />
              <mxPoint x="210" y="232" />
            </Array>
          </mxGeometry>
        </mxCell>
        <mxCell id="Hfo26zdI6mmSCi7H8B1I-19" value="Положить в корзину &quot;Губернскую&quot;" style="rounded=1;whiteSpace=wrap;html=1;" vertex="1" parent="WIyWlLk6GJQsqaUBKTNV-1">
          <mxGeometry x="260" y="194" width="121.25" height="30" as="geometry" />
        </mxCell>
        <mxCell id="Hfo26zdI6mmSCi7H8B1I-27" style="edgeStyle=orthogonalEdgeStyle;rounded=0;orthogonalLoop=1;jettySize=auto;html=1;endSize=8;endArrow=block;endFill=0;" edge="1" parent="WIyWlLk6GJQsqaUBKTNV-1" source="Hfo26zdI6mmSCi7H8B1I-25" target="Hfo26zdI6mmSCi7H8B1I-26">
          <mxGeometry relative="1" as="geometry" />
        </mxCell>
        <mxCell id="Hfo26zdI6mmSCi7H8B1I-25" value="Прийти в хлебный отдел" style="rounded=1;whiteSpace=wrap;html=1;" vertex="1" parent="WIyWlLk6GJQsqaUBKTNV-1">
          <mxGeometry x="150" y="246" width="120" height="30" as="geometry" />
        </mxCell>
        <mxCell id="Hfo26zdI6mmSCi7H8B1I-29" style="edgeStyle=orthogonalEdgeStyle;rounded=0;orthogonalLoop=1;jettySize=auto;html=1;entryX=0.5;entryY=0;entryDx=0;entryDy=0;endArrow=block;endFill=0;endSize=8;" edge="1" parent="WIyWlLk6GJQsqaUBKTNV-1" source="Hfo26zdI6mmSCi7H8B1I-26" target="Hfo26zdI6mmSCi7H8B1I-28">
          <mxGeometry relative="1" as="geometry" />
        </mxCell>
        <mxCell id="Hfo26zdI6mmSCi7H8B1I-26" value="Найти белый нарезной хлеб и положить его в корзину" style="rounded=1;whiteSpace=wrap;html=1;" vertex="1" parent="WIyWlLk6GJQsqaUBKTNV-1">
          <mxGeometry x="130" y="312" width="160" height="30" as="geometry" />
        </mxCell>
        <mxCell id="Hfo26zdI6mmSCi7H8B1I-33" style="edgeStyle=orthogonalEdgeStyle;rounded=0;orthogonalLoop=1;jettySize=auto;html=1;entryX=0.5;entryY=0;entryDx=0;entryDy=0;endSize=8;endArrow=block;endFill=0;" edge="1" parent="WIyWlLk6GJQsqaUBKTNV-1" source="Hfo26zdI6mmSCi7H8B1I-28" target="Hfo26zdI6mmSCi7H8B1I-30">
          <mxGeometry relative="1" as="geometry" />
        </mxCell>
        <mxCell id="Hfo26zdI6mmSCi7H8B1I-28" value="Прийти в молочный отдел" style="rounded=1;whiteSpace=wrap;html=1;" vertex="1" parent="WIyWlLk6GJQsqaUBKTNV-1">
          <mxGeometry x="150" y="372" width="120" height="30" as="geometry" />
        </mxCell>
        <mxCell id="Hfo26zdI6mmSCi7H8B1I-32" style="edgeStyle=orthogonalEdgeStyle;rounded=0;orthogonalLoop=1;jettySize=auto;html=1;endSize=8;endArrow=block;endFill=0;entryX=0.5;entryY=0;entryDx=0;entryDy=0;" edge="1" parent="WIyWlLk6GJQsqaUBKTNV-1" source="Hfo26zdI6mmSCi7H8B1I-30" target="Hfo26zdI6mmSCi7H8B1I-34">
          <mxGeometry relative="1" as="geometry">
            <mxPoint x="210" y="482" as="targetPoint" />
          </mxGeometry>
        </mxCell>
        <mxCell id="Hfo26zdI6mmSCi7H8B1I-30" value="Найти сливочное масло и положить его в корзину" style="rounded=1;whiteSpace=wrap;html=1;" vertex="1" parent="WIyWlLk6GJQsqaUBKTNV-1">
          <mxGeometry x="130" y="432" width="160" height="30" as="geometry" />
        </mxCell>
        <mxCell id="Hfo26zdI6mmSCi7H8B1I-40" style="edgeStyle=orthogonalEdgeStyle;rounded=0;orthogonalLoop=1;jettySize=auto;html=1;entryX=0.5;entryY=0;entryDx=0;entryDy=0;endSize=8;endArrow=block;endFill=0;" edge="1" parent="WIyWlLk6GJQsqaUBKTNV-1" source="Hfo26zdI6mmSCi7H8B1I-34" target="Hfo26zdI6mmSCi7H8B1I-36">
          <mxGeometry relative="1" as="geometry">
            <Array as="points">
              <mxPoint x="210" y="532" />
              <mxPoint x="140" y="532" />
            </Array>
          </mxGeometry>
        </mxCell>
        <mxCell id="Hfo26zdI6mmSCi7H8B1I-41" style="edgeStyle=orthogonalEdgeStyle;rounded=0;orthogonalLoop=1;jettySize=auto;html=1;entryX=0.5;entryY=0;entryDx=0;entryDy=0;endSize=8;endArrow=block;endFill=0;" edge="1" parent="WIyWlLk6GJQsqaUBKTNV-1" source="Hfo26zdI6mmSCi7H8B1I-34" target="Hfo26zdI6mmSCi7H8B1I-37">
          <mxGeometry relative="1" as="geometry">
            <Array as="points">
              <mxPoint x="210" y="532" />
              <mxPoint x="270" y="532" />
            </Array>
          </mxGeometry>
        </mxCell>
        <mxCell id="Hfo26zdI6mmSCi7H8B1I-34" value="" style="rounded=0;whiteSpace=wrap;html=1;fillColor=#000000;" vertex="1" parent="WIyWlLk6GJQsqaUBKTNV-1">
          <mxGeometry x="141.25" y="492" width="137.5" height="30" as="geometry" />
        </mxCell>
        <mxCell id="Hfo26zdI6mmSCi7H8B1I-43" style="edgeStyle=orthogonalEdgeStyle;rounded=0;orthogonalLoop=1;jettySize=auto;html=1;entryX=0.5;entryY=0;entryDx=0;entryDy=0;endSize=8;endArrow=block;endFill=0;" edge="1" parent="WIyWlLk6GJQsqaUBKTNV-1" source="Hfo26zdI6mmSCi7H8B1I-36" target="Hfo26zdI6mmSCi7H8B1I-42">
          <mxGeometry relative="1" as="geometry">
            <Array as="points">
              <mxPoint x="140" y="592" />
              <mxPoint x="209" y="592" />
            </Array>
          </mxGeometry>
        </mxCell>
        <mxCell id="Hfo26zdI6mmSCi7H8B1I-36" value="Проверить баланс на карте" style="rounded=1;whiteSpace=wrap;html=1;" vertex="1" parent="WIyWlLk6GJQsqaUBKTNV-1">
          <mxGeometry x="80" y="552" width="120" height="30" as="geometry" />
        </mxCell>
        <mxCell id="Hfo26zdI6mmSCi7H8B1I-44" style="edgeStyle=orthogonalEdgeStyle;rounded=0;orthogonalLoop=1;jettySize=auto;html=1;endSize=8;endArrow=block;endFill=0;" edge="1" parent="WIyWlLk6GJQsqaUBKTNV-1" source="Hfo26zdI6mmSCi7H8B1I-37" target="Hfo26zdI6mmSCi7H8B1I-42">
          <mxGeometry relative="1" as="geometry">
            <Array as="points">
              <mxPoint x="270" y="592" />
              <mxPoint x="209" y="592" />
            </Array>
          </mxGeometry>
        </mxCell>
        <mxCell id="Hfo26zdI6mmSCi7H8B1I-37" value="Идти к кассе" style="rounded=1;whiteSpace=wrap;html=1;" vertex="1" parent="WIyWlLk6GJQsqaUBKTNV-1">
          <mxGeometry x="210" y="552" width="120" height="30" as="geometry" />
        </mxCell>
        <mxCell id="Hfo26zdI6mmSCi7H8B1I-50" style="edgeStyle=orthogonalEdgeStyle;rounded=0;orthogonalLoop=1;jettySize=auto;html=1;entryX=0.5;entryY=0;entryDx=0;entryDy=0;endSize=8;endArrow=block;endFill=0;" edge="1" parent="WIyWlLk6GJQsqaUBKTNV-1" source="Hfo26zdI6mmSCi7H8B1I-42" target="Hfo26zdI6mmSCi7H8B1I-46">
          <mxGeometry relative="1" as="geometry" />
        </mxCell>
        <mxCell id="Hfo26zdI6mmSCi7H8B1I-42" value="" style="rounded=0;whiteSpace=wrap;html=1;fillColor=#000000;" vertex="1" parent="WIyWlLk6GJQsqaUBKTNV-1">
          <mxGeometry x="140" y="612" width="137.5" height="30" as="geometry" />
        </mxCell>
        <mxCell id="Hfo26zdI6mmSCi7H8B1I-48" style="edgeStyle=orthogonalEdgeStyle;rounded=0;orthogonalLoop=1;jettySize=auto;html=1;entryX=1;entryY=0.5;entryDx=0;entryDy=0;endSize=8;endArrow=block;endFill=0;" edge="1" parent="WIyWlLk6GJQsqaUBKTNV-1" source="Hfo26zdI6mmSCi7H8B1I-46" target="Hfo26zdI6mmSCi7H8B1I-47">
          <mxGeometry relative="1" as="geometry">
            <mxPoint x="130" y="702" as="targetPoint" />
          </mxGeometry>
        </mxCell>
        <mxCell id="Hfo26zdI6mmSCi7H8B1I-49" value="Да" style="edgeLabel;html=1;align=center;verticalAlign=middle;resizable=0;points=[];" vertex="1" connectable="0" parent="Hfo26zdI6mmSCi7H8B1I-48">
          <mxGeometry x="-0.5678" y="1" relative="1" as="geometry">
            <mxPoint as="offset" />
          </mxGeometry>
        </mxCell>
        <mxCell id="Hfo26zdI6mmSCi7H8B1I-51" style="edgeStyle=orthogonalEdgeStyle;rounded=0;orthogonalLoop=1;jettySize=auto;html=1;endArrow=block;endFill=0;endSize=8;entryX=0;entryY=0.5;entryDx=0;entryDy=0;" edge="1" parent="WIyWlLk6GJQsqaUBKTNV-1" source="Hfo26zdI6mmSCi7H8B1I-46" target="Hfo26zdI6mmSCi7H8B1I-52">
          <mxGeometry relative="1" as="geometry">
            <mxPoint x="270" y="702" as="targetPoint" />
          </mxGeometry>
        </mxCell>
        <mxCell id="Hfo26zdI6mmSCi7H8B1I-46" value="Недостаточно денег?" style="rhombus;whiteSpace=wrap;html=1;" vertex="1" parent="WIyWlLk6GJQsqaUBKTNV-1">
          <mxGeometry x="168.75" y="672" width="80" height="60" as="geometry" />
        </mxCell>
        <mxCell id="Hfo26zdI6mmSCi7H8B1I-68" style="edgeStyle=orthogonalEdgeStyle;rounded=0;orthogonalLoop=1;jettySize=auto;html=1;entryX=0;entryY=0.5;entryDx=0;entryDy=0;endSize=8;endArrow=block;endFill=0;exitX=0.417;exitY=0.94;exitDx=0;exitDy=0;exitPerimeter=0;" edge="1" parent="WIyWlLk6GJQsqaUBKTNV-1" source="Hfo26zdI6mmSCi7H8B1I-47" target="Hfo26zdI6mmSCi7H8B1I-63">
          <mxGeometry relative="1" as="geometry">
            <mxPoint x="41.25" y="920" as="sourcePoint" />
            <Array as="points">
              <mxPoint x="41" y="715" />
              <mxPoint x="41" y="960" />
            </Array>
          </mxGeometry>
        </mxCell>
        <mxCell id="Hfo26zdI6mmSCi7H8B1I-47" value="Вернуть товары на свои места и поплакать" style="rounded=1;whiteSpace=wrap;html=1;" vertex="1" parent="WIyWlLk6GJQsqaUBKTNV-1">
          <mxGeometry x="-20" y="687" width="140" height="30" as="geometry" />
        </mxCell>
        <mxCell id="Hfo26zdI6mmSCi7H8B1I-58" style="edgeStyle=orthogonalEdgeStyle;rounded=0;orthogonalLoop=1;jettySize=auto;html=1;endSize=8;endArrow=block;endFill=0;" edge="1" parent="WIyWlLk6GJQsqaUBKTNV-1" source="Hfo26zdI6mmSCi7H8B1I-52" target="Hfo26zdI6mmSCi7H8B1I-53">
          <mxGeometry relative="1" as="geometry">
            <Array as="points">
              <mxPoint x="344" y="740" />
              <mxPoint x="344" y="740" />
            </Array>
          </mxGeometry>
        </mxCell>
        <mxCell id="Hfo26zdI6mmSCi7H8B1I-52" value="Положить товары на ленту" style="rounded=1;whiteSpace=wrap;html=1;" vertex="1" parent="WIyWlLk6GJQsqaUBKTNV-1">
          <mxGeometry x="284" y="687" width="120" height="30" as="geometry" />
        </mxCell>
        <mxCell id="Hfo26zdI6mmSCi7H8B1I-56" style="edgeStyle=orthogonalEdgeStyle;rounded=0;orthogonalLoop=1;jettySize=auto;html=1;endSize=8;endArrow=block;endFill=0;" edge="1" parent="WIyWlLk6GJQsqaUBKTNV-1" source="Hfo26zdI6mmSCi7H8B1I-53" target="Hfo26zdI6mmSCi7H8B1I-55">
          <mxGeometry relative="1" as="geometry">
            <Array as="points">
              <mxPoint x="345" y="800" />
              <mxPoint x="345" y="800" />
            </Array>
          </mxGeometry>
        </mxCell>
        <mxCell id="Hfo26zdI6mmSCi7H8B1I-53" value="Дождаться пробития товаров кассиром" style="rounded=1;whiteSpace=wrap;html=1;" vertex="1" parent="WIyWlLk6GJQsqaUBKTNV-1">
          <mxGeometry x="285" y="750" width="120" height="30" as="geometry" />
        </mxCell>
        <mxCell id="Hfo26zdI6mmSCi7H8B1I-60" style="edgeStyle=orthogonalEdgeStyle;rounded=0;orthogonalLoop=1;jettySize=auto;html=1;endSize=8;endArrow=block;endFill=0;entryX=0.5;entryY=0;entryDx=0;entryDy=0;" edge="1" parent="WIyWlLk6GJQsqaUBKTNV-1" source="Hfo26zdI6mmSCi7H8B1I-55" target="Hfo26zdI6mmSCi7H8B1I-59">
          <mxGeometry relative="1" as="geometry">
            <mxPoint x="300" y="850" as="targetPoint" />
            <Array as="points">
              <mxPoint x="345" y="850" />
              <mxPoint x="345" y="850" />
            </Array>
          </mxGeometry>
        </mxCell>
        <mxCell id="Hfo26zdI6mmSCi7H8B1I-55" value="Попросить пакет" style="rounded=1;whiteSpace=wrap;html=1;" vertex="1" parent="WIyWlLk6GJQsqaUBKTNV-1">
          <mxGeometry x="295" y="810" width="100" height="20" as="geometry" />
        </mxCell>
        <mxCell id="Hfo26zdI6mmSCi7H8B1I-70" style="edgeStyle=orthogonalEdgeStyle;rounded=0;orthogonalLoop=1;jettySize=auto;html=1;entryX=0.5;entryY=0;entryDx=0;entryDy=0;endSize=8;endArrow=block;endFill=0;" edge="1" parent="WIyWlLk6GJQsqaUBKTNV-1" source="Hfo26zdI6mmSCi7H8B1I-59" target="Hfo26zdI6mmSCi7H8B1I-62">
          <mxGeometry relative="1" as="geometry" />
        </mxCell>
        <mxCell id="Hfo26zdI6mmSCi7H8B1I-59" value="Оплатить продукты" style="rounded=1;whiteSpace=wrap;html=1;" vertex="1" parent="WIyWlLk6GJQsqaUBKTNV-1">
          <mxGeometry x="301.5" y="860" width="87" height="30" as="geometry" />
        </mxCell>
        <mxCell id="Hfo26zdI6mmSCi7H8B1I-71" style="edgeStyle=orthogonalEdgeStyle;rounded=0;orthogonalLoop=1;jettySize=auto;html=1;entryX=1;entryY=0.5;entryDx=0;entryDy=0;endSize=8;endArrow=block;endFill=0;" edge="1" parent="WIyWlLk6GJQsqaUBKTNV-1" source="Hfo26zdI6mmSCi7H8B1I-62" target="Hfo26zdI6mmSCi7H8B1I-63">
          <mxGeometry relative="1" as="geometry" />
        </mxCell>
        <mxCell id="Hfo26zdI6mmSCi7H8B1I-62" value="Положить продукты в пакет" style="rounded=1;whiteSpace=wrap;html=1;" vertex="1" parent="WIyWlLk6GJQsqaUBKTNV-1">
          <mxGeometry x="285" y="945" width="120" height="30" as="geometry" />
        </mxCell>
        <mxCell id="Hfo26zdI6mmSCi7H8B1I-65" style="edgeStyle=orthogonalEdgeStyle;rounded=0;orthogonalLoop=1;jettySize=auto;html=1;endSize=8;endArrow=block;endFill=0;" edge="1" parent="WIyWlLk6GJQsqaUBKTNV-1" source="Hfo26zdI6mmSCi7H8B1I-63" target="Hfo26zdI6mmSCi7H8B1I-66">
          <mxGeometry relative="1" as="geometry">
            <mxPoint x="160.625" y="1005" as="targetPoint" />
          </mxGeometry>
        </mxCell>
        <mxCell id="Hfo26zdI6mmSCi7H8B1I-63" value="Идти домой" style="rounded=1;whiteSpace=wrap;html=1;" vertex="1" parent="WIyWlLk6GJQsqaUBKTNV-1">
          <mxGeometry x="120" y="945" width="81.25" height="30" as="geometry" />
        </mxCell>
        <mxCell id="Hfo26zdI6mmSCi7H8B1I-66" value="" style="ellipse;whiteSpace=wrap;html=1;fillColor=#000000;" vertex="1" parent="WIyWlLk6GJQsqaUBKTNV-1">
          <mxGeometry x="150.31" y="1005" width="20.63" height="20" as="geometry" />
        </mxCell>
      </root>
    </mxGraphModel>
  </diagram>
</mxfile>
